Coordinates
version=1
nRows=11
nColumns=42
inDegrees=yes

Units are S.I. units (second, meters, Newtons, ...)
If the header above contains a line with 'inDegrees', this indicates whether rotational values are in degrees (yes) or radians (no).

endheader
time	pelvis_tilt	pelvis_list	pelvis_rotation	pelvis_tx	pelvis_ty	pelvis_tz	hip_flexion_r	hip_adduction_r	hip_rotation_r	knee_angle_r	knee_adduction_r	knee_angle_r_beta	ankle_angle_r	subtalar_angle_r	mtp_angle_r	hip_flexion_l	hip_adduction_l	hip_rotation_l	knee_angle_l	knee_adduction_l	knee_angle_l_beta	ankle_angle_l	subtalar_angle_l	mtp_angle_l	lumbar_extension	lumbar_bending	lumbar_rotation	arm_flex_r	arm_add_r	arm_rot_r	elbow_flex_r	pro_sup_r	wrist_flex_r	wrist_dev_r	arm_flex_l	arm_add_l	arm_rot_l	elbow_flex_l	pro_sup_l	wrist_flex_l	wrist_dev_l
      0.40000000	      7.45265131	     -2.91286021	     10.90859518	     -1.08959079	      0.87201852	      0.19277052	     -0.22159463	      8.67920131	     -0.97464479	     14.79139497	      2.25645149	      0.25815854	     17.26699841	    -13.38449375	     -9.68435036	     13.22440442	     -0.47103472	      3.96901455	     63.54113798	     -8.15948805	      1.10900207	     16.12175688	    -17.86671632	     -9.68435036	    -36.37623178	      9.09804064	     -4.36517091	     15.02358940	    -12.42061336	      1.26276480	     38.18823040	     90.00000001	      0.00000000	      0.00000000	     15.09846000	    -13.43440925	     -3.01695629	     38.54976711	     90.00000001	      0.00000000	      0.00000000
      0.41000000	      7.34724307	     -2.82997895	     10.86849195	     -1.08118046	      0.87195999	      0.19357018	     -0.68432675	      8.85745944	     -1.11287490	     14.93066279	      2.01472079	      0.26058923	     17.72589615	    -13.16077170	     -9.65553698	     14.44855254	     -0.12851735	      3.82435445	     62.52004840	     -8.22441437	      1.09118069	     16.36554213	    -17.74952723	     -9.65553698	    -36.32279556	      8.92377710	     -4.25247177	     15.72937885	    -12.57239789	      1.30064288	     38.52617460	     90.00000001	      0.00000000	      0.00000000	     14.50955823	    -13.32156803	     -2.96314075	     38.14516626	     90.00000001	      0.00000000	      0.00000000
      0.42000000	      7.46542868	     -2.43174040	     10.60044615	     -1.07259591	      0.87248877	      0.19422662	     -1.52975838	      8.57678660	     -0.79386729	     15.02046824	      2.07859164	      0.26215663	     18.63083415	    -13.00376622	     -9.59870759	     15.09715304	      0.58244704	      3.46126973	     60.99428077	     -8.32556424	      1.06455102	     16.33718868	    -17.82914620	     -9.59870759	    -36.55522730	      8.39452692	     -4.08332102	     16.52131005	    -12.82625192	      1.71153187	     38.74662220	     90.00000001	      0.00000000	      0.00000000	     14.24151920	    -13.08592352	     -3.06682311	     37.09792144	     90.00000001	      0.00000000	      0.00000000
      0.43000000	      7.59253835	     -2.19345971	     10.44782414	     -1.06393103	      0.87282606	      0.19473753	     -2.47040510	      8.54802791	     -0.51634809	     14.83630927	      1.97916994	      0.25894245	     19.04446492	    -12.85590353	     -9.50317926	     15.76031061	      1.09999823	      3.22513579	     59.32288166	     -8.38971422	      1.03537961	     16.22983894	    -17.79558852	     -9.50317926	    -36.74697954	      8.07930683	     -3.98778998	     17.25454346	    -13.12878908	      2.30771586	     39.15948999	     90.00000001	      0.00000000	      0.00000000	     13.76949788	    -12.85837921	     -3.46114464	     36.43981318	     90.00000001	      0.00000000	      0.00000000
      0.44000000	      7.59241255	     -2.03118391	     10.30160609	     -1.05541508	      0.87273226	      0.19523736	     -3.15188241	      8.58192601	     -0.20267237	     14.83974495	      1.88677954	      0.25900241	     19.56001259	    -12.87446080	     -9.42168757	     16.57337309	      1.50737398	      3.25014892	     57.55980643	     -8.14583213	      1.00460814	     16.19647339	    -17.73744904	     -9.42168757	    -36.78886557	      7.82457738	     -3.86349346	     18.00228414	    -13.39934901	      2.72247737	     39.50116083	     90.00000001	      0.00000000	      0.00000000	     13.29756592	    -12.64387807	     -3.71539909	     35.76850532	     90.00000001	      0.00000000	      0.00000000
      0.45000000	      7.55492581	     -1.92960521	     10.15093743	     -1.04688307	      0.87237109	      0.19580379	     -3.73346528	      8.69558238	      0.02595030	     14.94432312	      1.74743345	      0.26082764	     20.20262592	    -12.86247689	     -9.36890506	     17.41258909	      1.78207020	      3.30615367	     55.66374324	     -7.76860400	      0.97151559	     16.19806209	    -17.65438502	     -9.36890506	    -36.76162756	      7.60758675	     -3.70597205	     18.73639620	    -13.59343977	      3.04664901	     39.84368854	     90.00000001	      0.00000000	      0.00000000	     12.78890715	    -12.43500052	     -3.92118153	     35.14758527	     90.00000001	      0.00000000	      0.00000000
      0.46000000	      7.34840264	     -2.03256450	     10.15295942	     -1.03855438	      0.87136377	      0.19603699	     -4.04746962	      9.05259164	     -0.01567825	     15.06299189	      1.43632694	      0.26289880	     20.60596196	    -12.61093282	     -9.33919285	     18.61293188	      1.89582754	      3.24752434	     53.86975863	     -7.58433777	      0.94020466	     16.23786589	    -17.32679514	     -9.33919285	    -36.52973165	      7.67692078	     -3.62351468	     19.41615374	    -13.84722450	      3.14055223	     40.24767820	     90.00000001	      0.00000000	      0.00000000	     12.15036042	    -12.29806514	     -4.00472538	     34.82688472	     90.00000001	      0.00000000	      0.00000000
      0.47000000	      7.59798052	     -1.77115587	      9.99384566	     -1.02980817	      0.87158556	      0.19606958	     -5.30918813	      8.92637738	      0.71079891	     14.56769082	      1.51895310	      0.25425417	     20.99527078	    -12.90651922	     -9.22966234	     18.74581509	      2.32807641	      3.41648315	     51.29609611	     -7.08589549	      0.89528577	     15.88963431	    -17.51227916	     -9.22966234	    -36.82050367	      7.39600058	     -3.59871360	     20.22995443	    -14.23086059	      4.13152926	     40.66916264	     90.00000001	      0.00000000	      0.00000000	     11.80901019	    -11.93692827	     -5.01813779	     33.95503955	     90.00000001	      0.00000000	      0.00000000
      0.48000000	      7.49421175	     -1.78439261	      9.89142359	     -1.02132692	      0.87066265	      0.19632174	     -5.81489856	      9.14808815	      0.82710689	     14.63054318	      1.31744914	      0.25535115	     21.61403316	    -12.85133298	     -9.18304497	     19.54705273	      2.41349240	      3.36872202	     48.98492128	     -6.64976716	      0.85494816	     15.87644846	    -17.25952047	     -9.18304497	    -36.69129789	      7.33405126	     -3.48088779	     20.93976014	    -14.45544804	      4.39130461	     41.05923195	     90.00000001	      0.00000000	      0.00000000	     11.28878743	    -11.76270044	     -5.25643986	     33.40737726	     90.00000001	      0.00000000	      0.00000000
      0.49000000	      7.53398705	     -1.73415507	      9.85562509	     -1.01270802	      0.87002557	      0.19612434	     -6.70513782	      9.21628209	      1.05247238	     14.29535833	      1.31183341	      0.24950107	     22.00062282	    -12.69220128	     -9.11607794	     19.99885219	      2.60062871	      3.26887512	     46.33920062	     -6.30562152	      0.80877162	     15.62885130	    -17.09421457	     -9.11607794	    -36.70882133	      7.30567255	     -3.47122085	     21.65616404	    -14.74164584	      4.93151768	     41.52613922	     90.00000001	      0.00000000	      0.00000000	     10.82241740	    -11.48885238	     -5.90751898	     32.81618639	     90.00000001	      0.00000000	      0.00000000
      0.50000000	      7.30250382	     -1.94367660	      9.85454738	     -1.00432815	      0.86845564	      0.19612381	     -7.05069676	      9.69417641	      0.96280665	     14.30184604	      0.92179548	      0.24961430	     22.54688344	    -12.46827775	     -9.08506590	     20.99830985	      2.46787461	      2.92003235	     43.98867130	     -6.03130017	      0.76774715	     15.61215511	    -16.54940488	     -9.08506590	    -36.40265053	      7.48998248	     -3.36318448	     22.32606060	    -14.95852645	      5.07935461	     41.96121972	     90.00000001	      0.00000000	      0.00000000	     10.22570217	    -11.29973817	     -6.09007821	     32.50486777	     90.00000001	      0.00000000	      0.00000000
